<?xml version="1.0" standalone="no"?>
<!DOCTYPE svg PUBLIC "-//W3C//DTD SVG 20010904//EN"
 "http://www.w3.org/TR/2001/REC-SVG-20010904/DTD/svg10.dtd">
<svg version="1.0" xmlns="http://www.w3.org/2000/svg"
 width="427.000000pt" height="427.000000pt" viewBox="0 0 427.000000 427.000000"
 preserveAspectRatio="xMidYMid meet">
<metadata>
Created by potrace 1.11, written by Peter Selinger 2001-2013
</metadata>
<g transform="translate(0.000000,427.000000) scale(0.100000,-0.100000)"
fill="#000000" stroke="none">
<path d="M1642 4078 c-7 -7 -12 -8 -12 -2 0 5 -7 -4 -15 -20 -8 -15 -15 -35
-15 -43 0 -8 -4 -12 -9 -9 -4 3 -7 -5 -6 -17 0 -12 -3 -31 -9 -42 -6 -11 -11
-22 -11 -25 -9 -38 -20 -67 -28 -77 -5 -7 -7 -13 -4 -13 3 0 0 -15 -8 -34 -8
-18 -16 -45 -19 -60 -3 -14 -11 -39 -18 -54 -7 -15 -13 -36 -13 -47 0 -11 -4
-23 -9 -27 -5 -3 -11 -13 -12 -22 -2 -17 -40 -140 -51 -166 -3 -8 -5 -18 -5
-22 1 -5 -4 -8 -10 -8 -9 0 -8 -4 2 -10 8 -5 10 -10 4 -10 -7 0 -12 -16 -12
-36 0 -28 8 -44 35 -70 19 -19 48 -41 64 -51 16 -10 29 -21 29 -26 0 -4 5 -5
10 -2 6 3 10 3 10 -2 0 -4 23 -23 50 -42 28 -19 50 -39 50 -44 0 -6 3 -8 6 -4
3 3 11 2 18 -3 60 -50 74 -58 81 -52 5 4 5 2 2 -4 -4 -7 0 -14 8 -18 8 -3 13
-11 10 -18 -2 -7 -7 -26 -10 -43 -3 -16 -7 -35 -9 -42 -1 -7 -5 -16 -9 -19
-12 -12 -8 -26 6 -18 8 5 8 2 -2 -9 -7 -9 -10 -17 -7 -17 4 0 2 -8 -3 -19 -6
-10 -11 -34 -13 -52 -1 -19 -6 -40 -11 -46 -5 -7 -7 -22 -4 -33 3 -11 1 -20
-5 -20 -5 0 -8 -8 -7 -17 1 -10 0 -20 -1 -23 -2 -6 -6 -26 -14 -65 -13 -64
-16 -81 -22 -105 -3 -14 -8 -44 -11 -67 -3 -24 -9 -40 -13 -38 -4 3 -6 -11 -4
-30 1 -19 -1 -35 -5 -35 -4 0 -8 -6 -8 -12 0 -12 -7 -50 -19 -113 -2 -11 -9
-40 -14 -65 -6 -25 -13 -58 -15 -75 -2 -16 -4 -30 -5 -30 -2 0 -7 -20 -14 -57
-4 -16 -9 -40 -12 -55 -3 -16 -6 -36 -7 -45 -1 -10 -4 -18 -8 -18 -3 0 -5 -16
-3 -35 1 -20 -2 -33 -7 -29 -5 3 -9 -11 -9 -31 0 -26 -4 -34 -12 -29 -10 5
-10 4 -1 -6 8 -9 9 -20 1 -39 -5 -14 -12 -39 -14 -56 -6 -40 -12 -70 -15 -70
-1 0 -2 -14 -3 -30 -1 -17 -5 -36 -9 -42 -4 -6 -9 -26 -12 -44 -7 -52 -16 -92
-21 -101 -6 -9 -14 -63 -17 -105 0 -13 -4 -23 -7 -23 -3 0 -7 -10 -8 -22 -3
-26 -10 -63 -12 -63 -2 0 -7 -32 -11 -73 -2 -17 -6 -32 -9 -32 -3 0 -7 -12 -8
-28 -1 -15 -4 -37 -6 -49 -3 -13 -1 -23 4 -23 4 0 6 -10 3 -22 -3 -13 -2 -20
2 -15 5 4 17 -5 27 -20 10 -16 18 -24 18 -20 0 5 7 2 15 -7 8 -8 15 -19 15
-25 0 -6 4 -11 9 -11 11 0 171 -161 171 -172 0 -4 7 -8 16 -8 8 0 12 -5 9 -10
-3 -6 -1 -10 6 -10 13 0 63 -50 51 -51 -4 0 3 -4 16 -9 12 -5 22 -17 22 -26 0
-10 2 -15 5 -12 7 7 82 -65 77 -74 -2 -5 1 -8 7 -8 5 0 59 -49 120 -110 100
-99 114 -110 147 -110 26 0 46 8 69 29 19 16 31 32 28 35 -4 3 -1 6 4 6 15 0
83 67 76 74 -4 3 -2 6 4 6 15 0 133 118 133 132 0 6 3 9 6 6 7 -7 74 59 74 72
0 6 6 9 13 7 6 -1 11 4 10 11 -2 6 1 12 6 12 12 0 251 240 251 252 0 5 4 7 9
4 20 -13 69 96 51 117 -1 1 -3 17 -4 35 -1 19 -7 37 -12 40 -5 4 -10 18 -11
32 -2 34 -9 72 -17 90 -3 8 -8 29 -10 45 -2 17 -6 37 -9 45 -7 21 -39 150 -42
175 -4 22 -25 112 -33 135 -2 8 -6 26 -8 40 -1 14 -10 51 -19 83 -8 32 -13 62
-10 67 3 6 2 10 -3 10 -6 0 -13 17 -16 38 -8 48 -14 77 -16 77 -2 0 -7 21 -15
60 -3 17 -12 53 -19 82 -8 28 -11 54 -8 57 3 3 1 6 -4 6 -5 0 -10 17 -12 37
-1 20 -6 39 -10 43 -5 3 -8 17 -7 33 1 15 -2 27 -8 27 -5 0 -7 6 -4 14 3 8 3
17 -1 20 -6 7 -13 36 -15 71 -1 11 -6 23 -10 26 -5 3 -9 20 -9 37 -1 18 -5 32
-10 32 -5 0 -7 4 -4 8 3 4 0 26 -5 48 -6 21 -11 49 -12 62 0 12 -4 22 -8 22
-4 0 -6 8 -4 18 1 9 -1 24 -6 33 -4 9 -10 28 -13 43 -3 14 -7 34 -10 44 -9 29
-18 76 -19 100 -1 12 -5 22 -10 22 -4 0 -5 5 -2 10 3 6 3 10 -2 10 -7 0 -13
34 -16 93 -1 9 -5 17 -10 17 -5 0 -7 6 -4 13 2 6 1 19 -4 28 -11 21 0 59 17
59 8 0 14 5 14 10 0 6 4 10 10 10 9 0 33 18 64 46 6 5 26 19 44 29 17 11 32
23 32 27 0 4 5 8 10 8 11 0 26 11 62 45 11 11 17 13 13 5 -5 -8 6 -1 25 17 18
18 38 30 43 26 6 -3 7 -1 3 5 -4 7 -1 12 9 12 9 0 14 4 10 9 -3 5 0 13 6 16 6
5 8 22 4 49 -4 22 -7 47 -8 54 0 6 -4 12 -9 12 -4 0 -8 8 -8 18 0 9 -7 29 -14
45 -8 15 -10 27 -5 27 5 0 3 10 -4 23 -8 12 -20 42 -27 67 -7 25 -16 54 -20
65 -16 38 -53 160 -53 173 0 6 -4 12 -9 12 -4 0 -8 9 -8 20 0 11 -4 28 -9 38
-5 9 -15 37 -22 62 -7 25 -13 47 -14 50 -8 25 -22 48 -38 63 -18 16 -53 17
-407 17 -287 0 -389 -3 -398 -12z m224 -169 c3 -6 10 -6 17 -1 7 5 21 9 32 9
11 0 25 -4 32 -9 7 -5 13 -5 17 0 3 5 17 10 31 10 14 0 28 -5 31 -10 4 -5 10
-5 17 0 7 5 21 9 32 9 11 0 25 -4 32 -9 7 -5 13 -5 17 0 7 12 55 12 62 1 3 -5
11 -6 17 -2 20 13 90 13 106 0 12 -9 13 -9 7 1 -4 6 -4 12 -1 12 6 0 34 -62
40 -85 1 -5 7 -23 13 -38 7 -15 11 -31 10 -35 -1 -8 8 -35 24 -69 6 -11 7 -27
3 -34 -5 -7 -4 -10 2 -6 9 6 16 -14 27 -73 1 -3 6 -12 11 -20 5 -8 10 -21 12
-30 11 -62 16 -80 25 -80 5 0 7 -4 4 -8 -3 -5 1 -21 9 -36 14 -26 13 -29 -19
-61 -19 -18 -37 -31 -40 -28 -3 4 -6 1 -6 -5 0 -7 -4 -12 -10 -12 -10 0 -37
-20 -71 -52 -9 -9 -20 -14 -23 -10 -3 3 -6 -1 -6 -8 0 -7 -3 -11 -6 -7 -5 5
-13 0 -71 -53 -15 -14 -30 -25 -33 -24 -12 1 -70 -39 -70 -49 0 -6 -3 -8 -6
-4 -5 5 -28 -10 -64 -44 -17 -16 -48 -17 -59 -2 -3 5 -28 25 -56 44 -27 18
-51 37 -53 42 -2 4 -8 7 -14 7 -11 0 -88 57 -100 75 -5 6 -8 6 -8 0 0 -6 -3
-6 -8 0 -4 6 -41 35 -82 65 -41 29 -77 56 -80 60 -3 3 -13 9 -22 13 -10 3 -18
11 -18 17 0 6 5 8 12 4 7 -4 8 -3 4 4 -6 11 35 158 54 194 5 9 12 31 15 49 3
18 9 37 13 43 7 11 12 32 14 54 1 6 6 12 11 12 6 0 7 3 4 7 -4 3 -1 13 6 21
10 13 9 14 -3 7 -12 -7 -13 -6 -3 6 12 15 49 121 44 128 -7 9 22 17 68 18 28
1 53 -2 57 -8z m119 -1067 c6 -4 15 -8 20 -9 6 -1 18 -5 28 -8 10 -4 17 -3 17
4 0 6 7 8 14 5 14 -5 21 -1 59 32 7 5 20 13 30 17 13 5 17 1 17 -18 0 -14 6
-25 13 -25 8 0 7 -4 -3 -10 -8 -5 -10 -10 -4 -10 11 0 21 -40 26 -97 1 -13 4
-23 8 -23 3 0 6 -10 7 -23 2 -24 10 -62 13 -62 1 0 3 -12 4 -27 2 -23 -11 -41
-69 -98 -40 -38 -70 -70 -68 -70 3 0 -10 -13 -30 -29 -20 -15 -33 -31 -30 -35
4 -4 -3 -9 -15 -12 -12 -4 -24 -15 -28 -26 -3 -11 -8 -17 -11 -14 -3 2 -24
-17 -48 -44 -24 -27 -46 -46 -49 -43 -3 4 -6 -1 -6 -11 0 -9 -3 -15 -7 -13 -5
3 -14 -1 -21 -9 -7 -8 -10 -14 -7 -14 3 0 -3 -8 -12 -18 -10 -11 -21 -17 -25
-15 -5 2 -8 -4 -8 -13 0 -10 -3 -15 -6 -12 -8 9 -42 -25 -36 -36 3 -5 0 -6 -6
-2 -8 4 -9 14 -4 24 5 9 7 27 6 40 0 12 2 22 6 22 7 0 8 3 11 58 1 17 5 32 9
32 3 0 7 10 8 23 0 12 4 38 7 57 3 19 6 41 7 48 1 6 5 12 10 12 5 0 7 4 4 8
-2 4 1 35 8 69 8 34 11 65 8 68 -3 3 -1 5 5 5 5 0 9 14 8 30 -1 17 2 30 6 30
4 0 8 8 8 18 0 9 3 33 7 52 4 19 7 44 8 55 1 11 4 22 8 25 4 3 10 24 12 45 5
37 12 73 16 85 1 3 2 9 1 14 -1 5 13 -3 31 -18 18 -14 38 -30 43 -34z m320
-547 c4 -22 7 -46 8 -52 0 -7 3 -13 7 -13 6 0 10 -24 13 -67 0 -13 4 -23 7
-23 3 0 7 -10 8 -22 3 -29 7 -49 15 -68 4 -8 8 -27 11 -42 3 -15 7 -32 11 -38
3 -5 0 -10 -7 -10 -11 0 -11 -2 0 -9 7 -4 14 -19 14 -32 1 -13 6 -29 11 -36 5
-7 6 -17 3 -22 -4 -5 -2 -12 3 -16 5 -3 8 -14 6 -25 -2 -11 1 -20 6 -20 5 0 9
-6 8 -12 -3 -15 11 -89 19 -103 3 -5 7 -22 9 -37 2 -24 -44 -74 -403 -433
l-407 -406 -72 73 c-40 40 -70 75 -66 78 3 3 7 10 8 16 1 6 5 24 8 40 6 26 10
49 19 106 1 10 5 20 8 24 4 3 4 12 1 20 -3 8 -1 14 5 14 5 0 8 14 7 30 -1 17
1 33 6 36 5 3 7 9 4 14 -3 5 -1 11 5 15 5 3 10 11 10 16 0 6 -5 7 -11 3 -8 -5
-8 -1 0 13 6 11 7 23 4 27 -3 3 -2 6 4 6 6 0 10 17 9 39 0 22 3 37 8 33 5 -3
7 2 3 11 -3 10 -2 17 2 17 5 0 8 11 6 25 -1 14 2 25 7 25 6 0 8 7 5 15 -4 8
-2 17 3 20 5 3 7 12 3 20 -3 9 -1 21 4 28 5 6 10 28 12 47 1 19 5 37 9 40 4 3
8 16 8 30 1 14 2 30 3 36 2 18 71 89 84 86 7 -2 9 -1 5 3 -9 9 223 241 237
237 5 -2 7 -1 3 3 -3 4 60 73 140 154 84 84 150 143 154 137 3 -6 9 -29 13
-51z m211 -906 c3 -13 8 -35 11 -49 3 -14 11 -31 17 -39 9 -12 8 -13 -4 -6
-13 8 -13 7 -1 -8 8 -10 11 -20 8 -23 -3 -3 -1 -18 5 -33 6 -14 12 -39 14 -55
2 -16 10 -42 18 -58 8 -15 10 -26 5 -23 -12 8 -11 3 2 -32 6 -15 13 -39 15
-53 3 -14 7 -33 10 -43 4 -14 -62 -86 -269 -293 -150 -151 -278 -274 -282
-274 -8 0 -285 275 -285 283 0 9 50 61 50 52 1 -5 8 3 16 18 8 15 19 25 24 22
6 -4 10 -2 10 2 0 13 62 78 72 75 4 -1 8 1 8 5 0 14 47 63 54 56 3 -3 6 -1 6
5 0 13 41 58 50 55 3 0 11 5 18 13 7 8 10 14 7 14 -3 0 7 12 22 28 15 15 31
26 35 24 4 -1 8 3 8 9 0 15 26 39 34 32 3 -4 6 -2 6 4 0 14 87 103 94 96 3 -4
6 -1 6 6 0 14 59 71 74 71 5 0 7 3 3 6 -7 8 36 53 46 47 4 -2 7 1 7 7 0 15 25
40 41 40 7 0 10 3 7 6 -6 5 24 43 30 39 1 -1 5 -13 8 -26z"/>
<path d="M3326 2982 c-4 -4 -11 -7 -14 -7 -25 -2 -51 -29 -57 -61 -7 -41 10
-94 31 -94 7 0 20 -10 28 -22 9 -12 16 -19 16 -15 0 8 60 -34 88 -60 7 -7 17
-13 20 -13 4 0 20 -11 35 -25 15 -14 27 -23 27 -20 0 3 6 1 13 -5 6 -6 39 -31
72 -55 33 -25 65 -49 72 -55 7 -5 15 -10 18 -10 2 0 15 -9 27 -20 13 -10 26
-19 31 -19 14 -1 35 -26 29 -35 -3 -5 -1 -6 5 -3 5 3 35 -14 67 -39 l57 -45
-53 -36 c-29 -19 -58 -40 -63 -47 -6 -6 -18 -15 -27 -21 -60 -37 -118 -80
-118 -87 0 -4 -5 -8 -11 -8 -6 0 -26 -12 -44 -27 -40 -34 -119 -89 -122 -85
-2 1 -11 -6 -21 -15 -10 -10 -29 -25 -42 -33 -12 -8 -28 -21 -36 -27 -7 -7
-16 -13 -21 -13 -5 0 -15 -9 -23 -19 -7 -11 -17 -18 -21 -16 -4 3 -13 -3 -20
-12 -12 -14 -12 -16 1 -8 8 5 5 -4 -8 -19 -18 -24 -20 -32 -10 -44 7 -8 12
-17 11 -19 -10 -12 2 -31 29 -46 23 -13 34 -15 36 -7 3 9 6 9 12 0 6 -10 17
-7 46 11 22 12 41 26 44 29 3 3 18 14 35 24 16 11 34 23 40 28 5 4 24 19 41
33 17 13 34 22 38 18 3 -3 6 -1 6 5 0 6 12 18 28 26 15 8 39 25 53 37 14 13
52 42 85 64 32 22 61 42 64 45 3 3 22 16 42 30 21 14 38 28 38 33 0 4 7 7 15
7 8 0 15 5 15 11 0 5 5 7 10 4 6 -3 10 -2 10 3 0 5 26 26 58 47 97 65 122 94
122 137 0 29 -7 45 -31 68 -18 16 -38 30 -46 30 -8 0 -11 5 -8 10 6 9 -8 14
-27 11 -5 0 -8 7 -8 16 0 9 -3 14 -6 10 -4 -3 -12 -1 -19 6 -7 7 -23 19 -36
27 -12 8 -33 25 -46 37 -13 12 -23 20 -23 17 0 -5 -51 29 -77 51 -37 31 -43
35 -52 35 -5 0 -11 7 -15 15 -3 8 -11 15 -18 15 -8 0 -28 13 -45 29 -18 16
-34 26 -37 23 -3 -3 -6 0 -6 6 0 7 -5 12 -11 12 -11 0 -92 60 -97 73 -2 4 -10
7 -18 7 -8 0 -14 5 -14 10 0 6 -7 10 -15 10 -8 0 -15 4 -15 9 0 8 -85 66 -98
66 -4 0 -12 3 -18 7 -6 4 -14 4 -18 0z"/>
<path d="M758 2969 c-10 -5 -18 -8 -18 -4 0 3 -8 -3 -18 -12 -35 -33 -62 -53
-72 -53 -6 0 -10 -4 -10 -10 0 -5 -5 -10 -11 -10 -6 0 -16 -6 -23 -12 -8 -7
-24 -20 -36 -28 -33 -22 -92 -67 -116 -87 -11 -10 -26 -19 -33 -21 -7 -1 -19
-8 -25 -15 -14 -13 -28 -23 -127 -95 -37 -26 -81 -58 -99 -72 -18 -14 -33 -23
-34 -21 0 3 -16 -10 -35 -27 -19 -17 -37 -30 -40 -28 -10 5 -56 -49 -59 -69
-6 -30 8 -85 21 -85 7 0 19 -9 27 -20 8 -11 18 -20 23 -20 8 0 23 -11 58 -42
10 -10 19 -15 19 -12 0 3 7 -1 15 -8 33 -30 45 -38 55 -38 5 0 10 -3 10 -8 0
-4 18 -18 40 -32 22 -14 40 -28 40 -32 0 -5 5 -8 10 -8 6 0 20 -9 32 -20 12
-11 28 -20 35 -20 8 0 11 -4 8 -10 -3 -5 1 -10 10 -10 8 0 18 -7 22 -16 3 -8
12 -13 19 -10 8 3 14 1 14 -5 0 -5 11 -14 25 -21 13 -6 22 -15 19 -19 -3 -5 1
-9 9 -9 8 0 25 -9 38 -21 13 -11 34 -29 47 -40 12 -10 22 -16 22 -11 1 4 10
-4 21 -18 12 -14 22 -23 24 -20 2 5 46 -25 71 -48 8 -7 14 -10 14 -6 0 3 7 0
17 -7 20 -17 16 -17 38 1 11 9 16 10 11 2 -6 -10 -2 -10 18 0 14 6 26 17 26
25 0 7 4 13 9 13 5 0 12 7 15 16 4 9 2 13 -5 8 -8 -4 -7 0 0 15 8 15 9 21 1
21 -6 0 -9 4 -6 8 6 11 -63 82 -79 82 -8 0 -89 63 -93 73 -2 4 -8 7 -13 7 -8
0 -35 20 -64 48 -8 6 -17 12 -22 12 -4 0 -20 11 -35 25 -15 14 -31 26 -35 27
-11 1 -157 109 -165 122 -4 6 -8 7 -8 3 0 -7 -10 0 -45 31 -7 6 -18 12 -24 12
-5 0 -16 9 -24 20 -8 11 -17 17 -21 13 -4 -4 -5 -1 -1 7 3 8 25 28 50 43 25
16 45 33 45 39 0 5 4 7 8 4 5 -3 20 6 35 20 14 13 31 24 37 24 5 0 10 5 10 10
0 6 6 10 13 10 7 0 27 14 45 30 18 17 35 30 38 30 3 0 10 4 17 10 57 46 77 61
77 56 0 -3 8 2 18 12 32 29 57 48 75 55 9 3 17 11 17 17 0 6 4 9 8 6 4 -2 23
8 41 24 18 16 42 32 53 36 11 3 17 8 15 11 -3 2 3 13 14 24 11 11 17 24 14 29
-4 6 -2 10 4 10 12 0 9 18 -12 56 -21 41 -71 56 -109 33z"/>
</g>
</svg>
